<svg id="图层_1" data-name="图层 1"
    xmlns="http://www.w3.org/2000/svg" viewBox="0 0 1024 1024">
    <title>logo</title>
    <path d="M796.4,0H227.6C101.9,0,0,101.9,0,227.6V796.4C0,922.1,101.9,1024,227.6,1024H796.4c125.7,0,227.6-101.9,227.6-227.6V227.6C1024,101.9,922.1,0,796.4,0Z" fill="#222"/>
    <path d="M232.86,232.86h55.83V791.14H232.86Z" fill="#fff"/>
    <path d="M623.66,316.6l63.92,63.92L551.36,516.75,439.7,405.09,232.86,612.21l39.36,39.36L439.7,484.09,551.36,595.74,727.22,420.16l63.92,63.93V316.6Z" fill="#fff"/>
    <path d="M791.14,735.31v55.83H232.86V735.31Z" fill="#fff"/>
</svg>